<svg aria-hidden="true" style="position: absolute; width: 0; height: 0; overflow: hidden;" version="1.1" xmlns="http://www.w3.org/2000/svg" xmlns:xlink="http://www.w3.org/1999/xlink">
  <defs>
    <symbol id="icon-Доп. доход" viewBox="0 0 26 27">
      <path d="M9.507 16.161c0-0.214-0.171-0.387-0.382-0.387h-3.703c-0.211 0-0.382 0.173-0.382 0.387v2.505c0 0.214 0.171 0.387 0.382 0.387h3.703c0.211 0 0.382-0.173 0.382-0.387v-2.505zM8.744 18.278h-2.939v-1.73h2.939v1.73z"></path>
      <path d="M18.589 18.218h2.057c0.211 0 0.382-0.173 0.382-0.387s-0.171-0.387-0.382-0.387h-2.057c-0.211 0-0.382 0.173-0.382 0.387s0.171 0.387 0.382 0.387z"></path>
      <path d="M18.589 16.548h2.057c0.211 0 0.382-0.173 0.382-0.387s-0.171-0.387-0.382-0.387h-2.057c-0.211 0-0.382 0.173-0.382 0.387s0.171 0.387 0.382 0.387z"></path>
      <path d="M22.292 20.34c-0.211 0-0.382 0.173-0.382 0.387v4.984c0 0.074-0.059 0.134-0.132 0.134h-17.487c-0.073 0-0.132-0.060-0.132-0.134v-8.574c0-0.214-0.171-0.387-0.382-0.387s-0.382 0.173-0.382 0.387v8.574c0 0.501 0.402 0.909 0.896 0.909h17.487c0.494 0 0.896-0.408 0.896-0.909v-4.984c0-0.214-0.171-0.387-0.382-0.387z"></path>
      <path d="M21.778 13.321h-6.305v-1.965c1.973-0.935 3.343-2.967 3.343-5.319 0-3.235-2.594-5.867-5.782-5.867-1.107 0-2.182 0.318-3.11 0.92-0.903 0.586-1.628 1.412-2.095 2.389-0.092 0.193-0.013 0.424 0.177 0.518s0.418 0.013 0.51-0.179c0.847-1.768 2.578-2.872 4.518-2.872 2.767 0 5.019 2.284 5.019 5.092s-2.251 5.092-5.019 5.092c-2.767 0-5.019-2.284-5.019-5.092 0-0.198 0.011-0.397 0.034-0.593 0.024-0.213-0.126-0.405-0.335-0.429s-0.399 0.128-0.423 0.34c-0.026 0.225-0.039 0.454-0.039 0.682 0 2.351 1.37 4.383 3.343 5.319v1.965h-6.304c-0.494 0-0.896 0.408-0.896 0.909v1.089c0 0.214 0.171 0.387 0.382 0.387s0.382-0.173 0.382-0.387v-1.089c0-0.074 0.059-0.134 0.132-0.134h4.97l3.486 4.043c0.073 0.084 0.177 0.132 0.287 0.132s0.215-0.048 0.287-0.132l3.486-4.043h4.97c0.073 0 0.132 0.060 0.132 0.134v4.679c0 0.214 0.171 0.387 0.382 0.387s0.382-0.173 0.382-0.387v-4.679c-0-0.502-0.402-0.909-0.896-0.909zM13.034 17.294l-2.759-3.199h0.701c0.211 0 0.382-0.173 0.382-0.387v-2.056c0.531 0.163 1.093 0.251 1.675 0.251s1.145-0.088 1.675-0.251v2.056c0 0.214 0.171 0.387 0.382 0.387h0.701l-2.759 3.199z"></path>
      <path d="M5.422 22.862h1.029c0.211 0 0.382-0.173 0.382-0.387s-0.171-0.387-0.382-0.387h-1.029c-0.211 0-0.382 0.173-0.382 0.387s0.171 0.387 0.382 0.387z"></path>
      <path d="M9.126 22.088h-1.029c-0.211 0-0.382 0.173-0.382 0.387s0.171 0.387 0.382 0.387h1.029c0.211 0 0.382-0.173 0.382-0.387s-0.171-0.387-0.382-0.387z"></path>
      <path d="M11.8 22.862c0.211 0 0.382-0.173 0.382-0.387s-0.171-0.387-0.382-0.387h-1.029c-0.211 0-0.382 0.173-0.382 0.387s0.171 0.387 0.382 0.387h1.029z"></path>
      <path d="M14.475 22.862c0.211 0 0.382-0.173 0.382-0.387s-0.171-0.387-0.382-0.387h-1.029c-0.211 0-0.382 0.173-0.382 0.387s0.171 0.387 0.382 0.387h1.029z"></path>
      <path d="M5.422 24.95h4.115c0.211 0 0.382-0.173 0.382-0.387s-0.171-0.387-0.382-0.387h-4.115c-0.211 0-0.382 0.173-0.382 0.387s0.171 0.387 0.382 0.387z"></path>
      <path d="M16.15 23.519c0 0.789 0.633 1.431 1.411 1.431 0.405 0 0.771-0.175 1.029-0.453 0.258 0.279 0.623 0.453 1.029 0.453 0.778 0 1.411-0.642 1.411-1.431s-0.633-1.431-1.411-1.431c-0.405 0-0.771 0.175-1.029 0.453-0.258-0.279-0.623-0.453-1.029-0.453-0.778 0-1.411 0.642-1.411 1.431zM19.618 22.862c0.357 0 0.647 0.294 0.647 0.656s-0.29 0.656-0.647 0.656-0.647-0.294-0.647-0.656c0-0.362 0.29-0.656 0.647-0.656zM18.207 23.519c0 0.362-0.29 0.656-0.647 0.656s-0.647-0.294-0.647-0.656c0-0.362 0.29-0.656 0.647-0.656s0.647 0.294 0.647 0.656z"></path>
      <path d="M11.769 8.065c-0.176-0.117-0.413-0.067-0.529 0.112s-0.066 0.419 0.111 0.536c0.494 0.328 0.831 0.425 1.267 0.449v0.427c0 0.214 0.171 0.387 0.382 0.387s0.382-0.173 0.382-0.387v-0.458c0.866-0.171 1.371-0.894 1.483-1.57 0.144-0.868-0.304-1.622-1.14-1.922-0.113-0.040-0.228-0.083-0.343-0.127v-1.858c0.291 0.070 0.465 0.219 0.48 0.233 0.155 0.143 0.395 0.132 0.537-0.025s0.133-0.402-0.022-0.547c-0.022-0.020-0.391-0.358-0.995-0.449v-0.381c0-0.214-0.171-0.387-0.382-0.387s-0.382 0.173-0.382 0.387v0.411c-0.058 0.013-0.117 0.028-0.178 0.046-0.55 0.168-0.962 0.646-1.073 1.247-0.102 0.548 0.071 1.076 0.451 1.379 0.202 0.161 0.454 0.308 0.8 0.464v2.354c-0.301-0.022-0.508-0.096-0.849-0.322zM12.29 4.959c-0.155-0.123-0.221-0.363-0.172-0.626 0.044-0.236 0.199-0.521 0.5-0.634v1.472c-0.124-0.068-0.235-0.138-0.328-0.212zM13.471 6.37c0.716 0.257 0.672 0.878 0.641 1.063-0.060 0.361-0.308 0.744-0.73 0.894v-1.989c0.030 0.011 0.059 0.021 0.089 0.032z"></path>
    </symbol>
    <symbol id="icon-alcohol" viewBox="0 0 24 27">
      <path d="M5.689 2.278c-0.192 0-0.348 0.179-0.348 0.401v0.169c0 0.221 0.156 0.401 0.348 0.401s0.348-0.179 0.348-0.401v-0.169c-0-0.221-0.156-0.401-0.348-0.401z"></path>
      <path d="M4.676 3.612h-0.147c-0.192 0-0.348 0.179-0.348 0.401s0.156 0.401 0.348 0.401h0.147c0.192 0 0.348-0.179 0.348-0.401s-0.156-0.401-0.348-0.401z"></path>
      <path d="M5.219 2.906l-0.104-0.12c-0.136-0.156-0.356-0.156-0.492 0s-0.136 0.41 0 0.567l0.104 0.12c0.068 0.078 0.157 0.117 0.246 0.117s0.178-0.039 0.246-0.117c0.136-0.156 0.136-0.41-0-0.567z"></path>
      <path d="M5.219 4.553c-0.136-0.156-0.356-0.156-0.492 0l-0.104 0.12c-0.136 0.156-0.136 0.41 0 0.567 0.068 0.078 0.157 0.117 0.246 0.117s0.178-0.039 0.246-0.117l0.104-0.12c0.136-0.156 0.136-0.41 0-0.567z"></path>
      <path d="M20.882 3.304h-11.762c-0.133-0.857-0.505-1.642-1.067-2.24-0.646-0.686-1.486-1.065-2.365-1.065-1.923 0-3.487 1.8-3.487 4.013s1.564 4.013 3.487 4.013c0.353 0 0.7-0.062 1.035-0.182 0.525 0.57 1.175 0.996 1.909 1.215 0.474 0.142 0.835 0.592 0.918 1.147l0.443 2.95c0.156 1.042 0.66 1.946 1.419 2.544 0.575 0.454 0.919 1.193 0.919 1.979v6.012c-0.265 0.194-0.435 0.534-0.435 0.909 0 0.011 0 0.023 0 0.034-0.87 0.205-1.586 0.393-2.13 0.56-0.371 0.114-0.65 0.214-0.855 0.307-0.191 0.086-0.545 0.247-0.545 0.621 0 0.502 0.567 0.587 1.022 0.656 0.391 0.059 0.934 0.108 1.612 0.147 1.145 0.064 2.306 0.075 2.317 0.075 0.001 0 0.002 0 0.003 0s0.002 0 0.003 0c0.012-0 1.172-0.011 2.317-0.075 0.678-0.038 1.22-0.087 1.612-0.147 0.456-0.069 1.022-0.155 1.022-0.656 0-0.397-0.318-0.602-1.48-0.952-0.704-0.212-1.581-0.427-2.211-0.573-0.001-0.289-0.101-0.56-0.275-0.758v-6.159c0-0.785 0.344-1.525 0.919-1.979 0.759-0.598 1.263-1.502 1.419-2.544l0.443-2.95c0.083-0.555 0.444-1.005 0.918-1.147 1.59-0.476 2.786-1.919 3.165-3.696 0.001-0.007 0.003-0.014 0.004-0.021 0.080-0.382 0.123-0.78 0.123-1.186v-0.374c0-0.264-0.186-0.478-0.415-0.478zM5.689 7.224c-1.539 0-2.791-1.441-2.791-3.212s1.252-3.212 2.791-3.212c0.704 0 1.376 0.302 1.893 0.852 0.419 0.446 0.706 1.021 0.829 1.651h-0.357c-0.276-1.222-1.243-2.105-2.365-2.105-1.348 0-2.445 1.262-2.445 2.813s1.097 2.813 2.445 2.813c0.1 0 0.201-0.008 0.301-0.022 0.067 0.125 0.138 0.247 0.214 0.365-0.169 0.037-0.341 0.055-0.515 0.055zM6.755 2.786c-0.136-0.156-0.356-0.156-0.492 0l-0.104 0.12c-0.094 0.108-0.123 0.262-0.087 0.398h-0.315c-0.229 0-0.415 0.214-0.415 0.478v0.374c0 0.407 0.043 0.804 0.123 1.186 0.001 0.007 0.003 0.015 0.004 0.022 0.048 0.226 0.109 0.446 0.182 0.66-0.946-0.024-1.71-0.916-1.71-2.011 0-1.109 0.784-2.012 1.748-2.012 0.74 0 1.385 0.536 1.636 1.303h-0.535c0.099-0.157 0.088-0.377-0.035-0.518zM14.393 25.37c1.224 0.283 1.992 0.498 2.473 0.653-0.88 0.099-2.29 0.165-3.548 0.176-1.257-0.011-2.668-0.076-3.547-0.175 0.46-0.148 1.183-0.351 2.315-0.617 0.313-0.073 0.53-0.411 0.505-0.785-0-0.007-0.001-0.014-0.001-0.022 0-0.124 0.073-0.233 0.177-0.265 0.152-0.047 0.258-0.206 0.258-0.387v-6.269c0-0.527-0.115-1.039-0.327-1.494 0.195 0.015 0.407 0.022 0.62 0.022s0.425-0.007 0.62-0.022c-0.212 0.455-0.327 0.967-0.327 1.494v6.35c0 0.137 0.061 0.265 0.162 0.339 0.070 0.051 0.112 0.138 0.112 0.233 0 0.006-0 0.012-0 0.018-0.020 0.357 0.198 0.681 0.508 0.753zM20.601 4.156h-0c0 0.241-0.018 0.478-0.051 0.709h-10.481c-0.192 0-0.348 0.179-0.348 0.401s0.156 0.401 0.348 0.401h10.292c-0.416 1.265-1.343 2.262-2.53 2.617-0.738 0.221-1.299 0.922-1.429 1.786l-0.443 2.95c-0.124 0.827-0.524 1.544-1.126 2.019-0.093 0.074-0.371 0.246-0.421 0.272-0.275 0.125-1.908 0.125-2.185 0-0.050-0.026-0.328-0.198-0.422-0.272-0.602-0.475-1.002-1.192-1.126-2.019l-0.443-2.95c-0.13-0.864-0.691-1.566-1.429-1.786-0.672-0.201-1.26-0.608-1.72-1.152-0.011-0.015-0.023-0.030-0.035-0.043-0.336-0.409-0.6-0.892-0.775-1.422h2.172c0.192 0 0.348-0.179 0.348-0.401s-0.156-0.401-0.348-0.401h-2.361c-0.034-0.231-0.051-0.468-0.051-0.709v-0.051h14.565v0.051z"></path>
    </symbol>
    <symbol id="icon-communal, communication" viewBox="0 0 27 27">
      <path d="M25.885 0h-24.771c-0.38 0-0.691 0.311-0.691 0.691s0.311 0.691 0.691 0.691h1.492v24.909c0 0.253 0.138 0.49 0.363 0.611s0.495 0.109 0.709-0.035l3.001-1.999 3.013 2.005c0.23 0.156 0.536 0.156 0.766 0l3.001-1.999 3.013 2.005c0.23 0.156 0.536 0.156 0.766 0l3.001-1.999 3.013 2.005c0.115 0.075 0.248 0.115 0.38 0.115 0.109 0 0.225-0.029 0.328-0.081 0.225-0.121 0.363-0.357 0.363-0.611l-0.012-24.909h1.573c0.38 0 0.691-0.311 0.691-0.691s-0.311-0.709-0.691-0.709zM22.947 25.001l-2.322-1.544c-0.23-0.156-0.536-0.156-0.766 0l-3.001 2.005-3.013-2.005c-0.23-0.156-0.536-0.156-0.766 0l-3.001 1.999-3.013-1.999c-0.23-0.156-0.536-0.156-0.766 0l-2.31 1.538v-23.619h18.952l0.006 23.624z"></path>
      <path d="M7.169 11.037h7.241c0.38 0 0.691-0.311 0.691-0.691s-0.311-0.691-0.691-0.691h-7.241c-0.38 0-0.691 0.311-0.691 0.691s0.305 0.691 0.691 0.691z"></path>
      <path d="M7.169 13.44h5.426c0.38 0 0.691-0.311 0.691-0.691s-0.311-0.691-0.691-0.691h-5.426c-0.38 0-0.691 0.311-0.691 0.691s0.305 0.691 0.691 0.691z"></path>
      <path d="M18.028 11.037h1.809c0.38 0 0.691-0.311 0.691-0.691s-0.311-0.691-0.691-0.691h-1.809c-0.38 0-0.691 0.311-0.691 0.691s0.305 0.691 0.691 0.691z"></path>
      <path d="M18.028 13.44h1.809c0.38 0 0.691-0.311 0.691-0.691s-0.311-0.691-0.691-0.691h-1.809c-0.38 0-0.691 0.311-0.691 0.691s0.305 0.691 0.691 0.691z"></path>
      <path d="M7.169 5.49h7.241c0.38 0 0.691-0.311 0.691-0.691s-0.311-0.691-0.691-0.691h-7.241c-0.38 0-0.691 0.311-0.691 0.691s0.305 0.691 0.691 0.691z"></path>
      <path d="M7.169 7.886h5.426c0.38 0 0.691-0.311 0.691-0.691s-0.311-0.691-0.691-0.691h-5.426c-0.38 0-0.691 0.311-0.691 0.691s0.305 0.691 0.691 0.691z"></path>
      <path d="M18.028 5.49h1.809c0.38 0 0.691-0.311 0.691-0.691s-0.311-0.691-0.691-0.691h-1.809c-0.38 0-0.691 0.311-0.691 0.691s0.305 0.691 0.691 0.691z"></path>
      <path d="M18.028 7.886h1.809c0.38 0 0.691-0.311 0.691-0.691s-0.311-0.691-0.691-0.691h-1.809c-0.38 0-0.691 0.311-0.691 0.691s0.305 0.691 0.691 0.691z"></path>
      <path d="M7.169 16.654h7.241c0.38 0 0.691-0.311 0.691-0.691s-0.311-0.691-0.691-0.691h-7.241c-0.38 0-0.691 0.311-0.691 0.691s0.305 0.691 0.691 0.691z"></path>
      <path d="M7.169 19.050h5.426c0.38 0 0.691-0.311 0.691-0.691s-0.311-0.691-0.691-0.691h-5.426c-0.38 0-0.691 0.311-0.691 0.691s0.305 0.691 0.691 0.691z"></path>
      <path d="M18.028 16.654h1.809c0.38 0 0.691-0.311 0.691-0.691s-0.311-0.691-0.691-0.691h-1.809c-0.38 0-0.691 0.311-0.691 0.691s0.305 0.691 0.691 0.691z"></path>
      <path d="M18.028 19.050h1.809c0.38 0 0.691-0.311 0.691-0.691s-0.311-0.691-0.691-0.691h-1.809c-0.38 0-0.691 0.311-0.691 0.691s0.305 0.691 0.691 0.691z"></path>
    </symbol>
    <symbol id="icon-education" viewBox="0 0 27 27">
      <path d="M26.477 5.426c-0.002 0-0.004 0-0.005 0h-1.774v-0.607c0.010-0.24-0.146-0.456-0.377-0.523-1.232-0.323-2.5-0.485-3.773-0.481-2.093 0-4.946 0.471-7.055 2.617-2.093-2.167-4.967-2.617-7.055-2.617-1.273-0.003-2.542 0.159-3.773 0.481-0.231 0.067-0.386 0.283-0.377 0.523v0.602h-1.764c-0.289 0-0.523 0.234-0.523 0.523v16.716c0 0.289 0.234 0.523 0.523 0.523 0.090-0 0.178-0.024 0.256-0.068 0.052-0.026 5.286-2.889 12.592-1.047h0.126c0.042 0.005 0.084 0.005 0.126 0 7.327-1.858 12.561 1 12.592 1.047 0.162 0.093 0.361 0.093 0.523 0 0.161-0.093 0.261-0.264 0.262-0.45v-16.716c0-0.289-0.234-0.523-0.523-0.523zM1.047 21.828v-15.355h1.251v13.126c-0.003 0.289 0.228 0.526 0.517 0.529 0.028 0 0.057-0.002 0.084-0.006 1.083-0.165 2.176-0.253 3.271-0.262 1.517-0.026 3.028 0.202 4.469 0.675-3.256-0.394-6.558 0.051-9.593 1.293zM6.17 18.819c-0.952 0.002-1.903 0.063-2.847 0.183v-13.77c1.019-0.227 2.060-0.343 3.103-0.345 1.957 0 4.658 0.45 6.531 2.564l0.016 13.037c-1.089-0.712-3.213-1.67-6.804-1.67zM14.021 7.452c1.874-2.093 4.574-2.564 6.531-2.564 1.044 0.003 2.084 0.119 3.103 0.345v13.77c-0.939-0.121-1.885-0.184-2.831-0.188-3.569 0-5.699 0.958-6.804 1.67v-13.032zM25.948 21.828c-3.042-1.245-6.352-1.69-9.614-1.293 1.448-0.475 2.966-0.703 4.49-0.675 1.102 0.006 2.202 0.092 3.292 0.256 0.286 0.043 0.553-0.153 0.596-0.439 0.004-0.028 0.006-0.056 0.006-0.084v-13.121h1.251l-0.021 15.355z"></path>
    </symbol>
    <symbol id="icon-entertainment" viewBox="0 0 27 27">
      <path d="M25.663 13.267l-1.073-1.084v-10.318l0.902-0.911c0.177-0.179 0.177-0.468 0-0.647s-0.463-0.179-0.64 0l-0.902 0.911h-10.212l-1.073-1.084c-0.177-0.179-0.463-0.179-0.64 0s-0.177 0.468 0 0.647l1.027 1.038-3.186 13.642c-0.263 0.332-0.351 0.774-0.228 1.187 0.137 0.459 0.511 0.804 0.977 0.9l2.032 0.417c0.385 0.079 0.713 0.325 0.899 0.675s0.208 0.762 0.060 1.13c-0.24 0.599-0.869 0.936-1.494 0.802l-7.613-1.629c-1.146-0.245-2.302 0.412-2.689 1.529-0.224 0.648-0.159 1.361 0.18 1.956s0.915 1.011 1.582 1.141l0.032 0.006c0.6 0.117 1.109 0.496 1.398 1.040s0.318 1.183 0.082 1.752c-0.097 0.233 0.012 0.501 0.242 0.599 0.057 0.024 0.116 0.036 0.175 0.036 0.177 0 0.345-0.105 0.418-0.281 0.342-0.824 0.299-1.749-0.119-2.538s-1.156-1.337-2.024-1.507l-0.032-0.006c-0.409-0.080-0.762-0.334-0.969-0.699s-0.247-0.801-0.11-1.198c0.237-0.684 0.945-1.087 1.647-0.936l7.613 1.629c1.056 0.226 2.116-0.343 2.521-1.353 0.249-0.621 0.212-1.316-0.101-1.906s-0.866-1.005-1.516-1.139l-2.032-0.417c-0.202-0.041-0.27-0.201-0.29-0.267-0.016-0.054-0.039-0.176 0.030-0.298l13.461-3.209 1.027 1.038c0.088 0.089 0.204 0.134 0.32 0.134s0.232-0.045 0.32-0.134c0.177-0.179 0.177-0.468 0-0.647zM23.044 2.133l-4.201 4.244-4.201-4.244h8.402zM13.803 2.579l4.399 4.445-7.117 7.19 2.718-11.635zM11.726 14.861l7.117-7.19 4.399 4.445-11.516 2.746zM23.684 11.268l-4.201-4.244 4.201-4.244v8.488z"></path>
    </symbol>
    <symbol id="icon-health" viewBox="0 0 25 27">
      <path d="M24.208 15.043l-0.429-7.008c-0.028-0.454-0.212-0.868-0.519-1.166s-0.699-0.444-1.104-0.411c-0.796 0.065-1.414 0.816-1.406 1.711l0.051 5.713-2.209 3.169c-0.353 0.506-0.938 0.709-1.469 0.557l2.404-3.496c0.422-0.614 0.352-1.503-0.16-2.024-0.273-0.278-0.626-0.416-0.995-0.387s-0.701 0.22-0.937 0.538l-3.632 4.898c-0.599 0.808-0.924 1.831-0.915 2.881l0.056 6.505c0.002 0.259 0.19 0.468 0.422 0.469l6.047 0.009c0 0 0 0 0.001 0 0.118 0 0.231-0.056 0.311-0.153s0.12-0.229 0.11-0.361l-0.247-3.184 4.014-5.975c0.44-0.655 0.655-1.466 0.605-2.283zM22.928 16.758l-4.112 6.12c-0.063 0.093-0.092 0.209-0.083 0.325l0.221 2.85-5.168-0.008-0.052-6.037c-0.007-0.826 0.248-1.632 0.72-2.267l3.632-4.899c0.087-0.117 0.21-0.188 0.346-0.198s0.266 0.040 0.367 0.143c0.189 0.192 0.215 0.52 0.059 0.747l-2.728 3.968c-0.072 0.104-0.101 0.237-0.082 0.366s0.086 0.244 0.183 0.317c0.976 0.725 2.306 0.483 3.027-0.551l2.3-3.3c0.059-0.084 0.090-0.189 0.089-0.296l-0.052-5.878c-0.004-0.396 0.27-0.729 0.623-0.757 0.18-0.015 0.353 0.050 0.489 0.182s0.217 0.315 0.23 0.516l0.429 7.008c0.036 0.591-0.119 1.177-0.437 1.65z"></path>
      <path d="M7.051 12.237c-0.236-0.318-0.569-0.509-0.937-0.538s-0.722 0.109-0.995 0.387c-0.511 0.521-0.582 1.41-0.16 2.024l2.404 3.496c-0.531 0.152-1.116-0.051-1.469-0.557l-2.21-3.169 0.051-5.713c0.008-0.894-0.61-1.646-1.406-1.711-0.405-0.033-0.797 0.113-1.104 0.411s-0.491 0.712-0.519 1.166l-0.429 7.008c-0.050 0.818 0.165 1.629 0.605 2.284l4.014 5.975-0.247 3.184c-0.010 0.132 0.030 0.263 0.11 0.361s0.193 0.153 0.311 0.153c0 0 0 0 0.001 0l6.047-0.009c0.232-0 0.42-0.209 0.422-0.469l0.056-6.505c0.009-1.050-0.316-2.073-0.915-2.881l-3.632-4.899zM10.7 26.045l-5.168 0.008 0.221-2.85c0.009-0.116-0.021-0.232-0.083-0.325l-4.112-6.12c-0.318-0.473-0.473-1.059-0.437-1.65l0.429-7.008c0.012-0.201 0.094-0.384 0.23-0.516 0.123-0.12 0.277-0.184 0.439-0.184 0.017 0 0.033 0.001 0.050 0.002 0.353 0.029 0.626 0.361 0.622 0.757l-0.052 5.878c-0.001 0.107 0.031 0.211 0.090 0.296l2.3 3.3c0.721 1.034 2.051 1.276 3.027 0.551 0.098-0.073 0.164-0.187 0.183-0.317s-0.011-0.262-0.082-0.366l-2.728-3.968c-0.156-0.226-0.13-0.555 0.059-0.747 0.101-0.103 0.231-0.153 0.367-0.143s0.259 0.081 0.346 0.199l3.632 4.899c0.471 0.636 0.727 1.441 0.72 2.267l-0.052 6.037z"></path>
      <path d="M20.519 5.324c0-1.422-0.494-2.759-1.392-3.765s-2.092-1.559-3.361-1.559c-1.27 0-2.464 0.554-3.361 1.559l-0.161 0.18-0.161-0.18c-0.898-1.006-2.092-1.559-3.361-1.559s-2.464 0.554-3.361 1.559c-1.853 2.076-1.853 5.454 0 7.53l6.585 7.375c0.083 0.092 0.191 0.139 0.299 0.139s0.216-0.046 0.299-0.139l6.585-7.375c0.898-1.006 1.392-2.343 1.392-3.765zM12.243 15.46l-6.286-7.040c-1.524-1.707-1.524-4.484 0-6.191 0.738-0.827 1.72-1.282 2.764-1.282s2.026 0.455 2.764 1.282l0.459 0.515c0.079 0.089 0.187 0.139 0.299 0.139s0.22-0.050 0.299-0.139l0.459-0.515c0.738-0.827 1.72-1.282 2.764-1.282s2.026 0.455 2.764 1.282c0.738 0.827 1.145 1.926 1.145 3.096s-0.407 2.269-1.145 3.096l-6.286 7.040z"></path>
    </symbol>
    <symbol id="icon-housing" viewBox="0 0 27 27">
      <path d="M25.662 10.084h-0.536v-1.994c0-1.179-0.959-2.137-2.137-2.137h-7.746c-0.718 0-1.354 0.356-1.742 0.901-0.388-0.545-1.024-0.901-1.742-0.901h-4.866c-0.218 0-0.396 0.177-0.396 0.396s0.177 0.396 0.396 0.396h4.866c0.742 0 1.346 0.604 1.346 1.346v3.956c-0.008-0.008-0.017-0.015-0.025-0.023-0.469-0.437-1.104-0.689-1.746-0.689h-6.588c-0.035-0.531-0.397-0.998-0.896-1.175-0.141-0.050-0.29-0.074-0.439-0.074h-0.745v-1.994c0-0.742 0.604-1.346 1.346-1.346h1.298c0.218 0 0.396-0.177 0.396-0.396s-0.177-0.396-0.396-0.396h-1.298c-1.179 0-2.137 0.959-2.137 2.137v1.994h-0.536c-0.738 0-1.338 0.6-1.338 1.338v4.13c0 1.537 1.25 2.787 2.787 2.787h0.199c0 0-0.433 1.165-0.433 1.166-0.273 0.735 0.289 1.542 1.072 1.542h0.636c0.356 0 0.697-0.17 0.912-0.454l1.705-2.254h13.246l1.705 2.254c0.215 0.284 0.556 0.454 0.912 0.454 0 0 0.636 0 0.636 0 0.784 0 1.345-0.807 1.072-1.542l-0.433-1.166h0.199c1.537 0 2.787-1.25 2.787-2.787v-4.13c0-0.738-0.6-1.338-1.338-1.338zM13.896 8.091c0-0.742 0.604-1.346 1.346-1.346h7.746c0.742 0 1.346 0.604 1.346 1.346v1.994c0 0-0.744 0-0.745 0-0.526 0-1.030 0.338-1.234 0.822-0.057 0.136-0.091 0.281-0.101 0.428 0 0-6.588 0-6.588 0-0.651 0-1.3 0.262-1.771 0.712v-3.956zM4.748 12.125h6.585c0.977 0 1.771 0.795 1.771 1.771v0.562h-8.356v-2.333zM4.541 20.116c-0.066 0.088-0.171 0.14-0.281 0.14 0 0-0.634 0-0.636 0-0.242 0-0.415-0.248-0.33-0.475l0.536-1.441h2.056l-1.344 1.777zM23.376 20.255h-0.636c-0.11 0-0.215-0.052-0.281-0.14l-1.344-1.777h2.056c0 0 0.534 1.436 0.536 1.441 0.085 0.227-0.089 0.475-0.33 0.475zM24.213 17.548h-21.427c-1.1 0-1.996-0.895-1.996-1.996v-4.13c0-0.302 0.245-0.547 0.547-0.547h2.072c0.302 0 0.547 0.245 0.547 0.547v3.432c0 0.218 0.177 0.396 0.396 0.396h14.527c0.218 0 0.396-0.177 0.396-0.396s-0.177-0.396-0.396-0.396h-4.984v-0.562c0-0.977 0.794-1.771 1.771-1.771h6.585v2.333h-1.79c-0.218 0-0.396 0.177-0.396 0.396s0.177 0.396 0.396 0.396h2.185c0.218 0 0.396-0.177 0.396-0.396v-3.431c0-0.302 0.245-0.547 0.547-0.547h2.072c0.302 0 0.547 0.245 0.547 0.547v4.13h0c0 1.1-0.895 1.996-1.996 1.996z"></path>
    </symbol>
    <symbol id="icon-other" viewBox="0 0 27 27">
      <path d="M26.996 18.844c-0.806-6.469-6.843-7.428-8.546-7.569v-5.875c0-0.040-0.057-4.050-4.95-4.050s-4.95 4.010-4.95 4.050v5.875c-1.704 0.141-7.738 1.1-8.546 7.569 0 0.009-0.004 0.045-0.004 0.056v1.8c0 0.249 0.201 0.45 0.45 0.45h2.25v0.9h-1.35c-0.249 0-0.45 0.201-0.45 0.45 0 1.089 0.658 3.15 3.15 3.15s3.15-2.061 3.15-3.15c0-0.249-0.201-0.45-0.45-0.45h-1.35v-0.9h6.75v0.9h-1.35c-0.248 0-0.45 0.201-0.45 0.45 0 1.089 0.658 3.15 3.15 3.15s3.15-2.061 3.15-3.15c0-0.249-0.201-0.45-0.45-0.45h-1.35v-0.9h6.75v0.9h-1.35c-0.248 0-0.45 0.201-0.45 0.45 0 1.089 0.658 3.15 3.15 3.15s3.15-2.061 3.15-3.15c0-0.249-0.201-0.45-0.45-0.45h-1.35v-0.9h2.25c0.248 0 0.45-0.201 0.45-0.45v-1.8c0-0.010 0-0.045-0.004-0.056zM9.45 5.4c0-0.129 0.045-3.15 4.050-3.15 3.977 0 4.050 3.023 4.050 3.15v5.85h-0.9v-2.7h-0.9v2.7h-6.3v-5.85zM5.22 13.023c1.194-0.524 2.477-0.821 3.78-0.873h9c1.303 0.052 2.586 0.348 3.78 0.873 2.269 0.939 3.881 2.998 4.247 5.427h-25.053c0.366-2.429 1.977-4.488 4.247-5.427zM4.050 24.75c-1.096 0.082-2.065-0.709-2.203-1.8h4.403c-0.143 1.087-1.107 1.876-2.201 1.8zM4.5 22.050h-0.9v-0.9h0.9v0.9zM13.5 24.75c-1.096 0.082-2.065-0.709-2.203-1.8h4.403c-0.143 1.087-1.107 1.876-2.201 1.8zM13.95 22.050h-0.9v-0.9h0.9v0.9zM22.95 24.75c-1.097 0.084-2.067-0.708-2.205-1.8h4.405c-0.143 1.087-1.107 1.876-2.201 1.8zM23.4 22.050h-0.9v-0.9h0.9v0.9zM26.1 20.25h-25.2v-0.9h25.2v0.9z"></path>
      <path d="M13.5 13.050c-1.243 0-2.25 1.007-2.25 2.25s1.007 2.25 2.25 2.25c1.243 0 2.25-1.007 2.25-2.25-0.002-1.242-1.008-2.248-2.25-2.25zM13.5 16.65c-0.746 0-1.35-0.605-1.35-1.35s0.604-1.35 1.35-1.35 1.35 0.604 1.35 1.35c0 0.745-0.604 1.35-1.35 1.35z"></path>
      <path d="M14.4 15.3c0 0.497-0.403 0.9-0.9 0.9s-0.9-0.403-0.9-0.9c0-0.497 0.403-0.9 0.9-0.9s0.9 0.403 0.9 0.9z"></path>
      <path d="M15.75 6.75h0.9v0.9h-0.9v-0.9z"></path>
      <path d="M15.75 5.4v0.45h0.9v-0.45c0-0.231-0.090-2.25-3.15-2.25v0.9c2.088 0 2.25 1.035 2.25 1.35z"></path>
      <path d="M9.45 14.85h0.9v0.9h-0.9v-0.9z"></path>
      <path d="M7.65 14.85h0.9v0.9h-0.9v-0.9z"></path>
      <path d="M16.65 14.85h0.9v0.9h-0.9v-0.9z"></path>
      <path d="M18.45 14.85h0.9v0.9h-0.9v-0.9z"></path>
    </symbol>
    <symbol id="icon-products" viewBox="0 0 27 27">
      <path d="M26.971 21.117l-0.102-0.614c-0.065-0.393-0.371-0.678-0.728-0.678-0.045 0-0.090 0.005-0.134 0.014l-2.069 0.426 0.937-0.702c0.246-0.184 0.37-0.513 0.316-0.839-0.015-0.089-0.043-0.175-0.083-0.255l-0.284-0.562c-0.097-0.193-0.263-0.337-0.454-0.394-0.094-0.028-0.192-0.034-0.287-0.020 0.104-0.645 0.158-1.304 0.158-1.974 0-0.298-0.16-0.554-0.388-0.667 0.298-0.794 0.319-1.704 0.024-2.536-0.024-0.068-0.059-0.128-0.105-0.18s-0.099-0.091-0.159-0.118c-0.353-0.158-0.724-0.237-1.103-0.237-0.048 0-0.097 0.001-0.145 0.004-0.054-1.22-0.956-2.194-2.056-2.194-0.145 0-0.286 0.017-0.423 0.049 0.095-0.635 0.039-1.3-0.182-1.924-0.024-0.069-0.059-0.13-0.108-0.185-0.047-0.052-0.101-0.093-0.162-0.119-0.38-0.17-0.78-0.256-1.189-0.256-0.615 0-1.203 0.194-1.711 0.554-0.186-0.602-0.491-1.167-0.919-1.647-0.125-0.14-0.292-0.218-0.469-0.218s-0.344 0.077-0.469 0.218l-1.89 2.121c-0.35-0.349-0.81-0.558-1.309-0.558-0.113 0-0.228 0.011-0.34 0.033-0.407 0.079-0.782 0.303-1.069 0.629-0.368-0.199-0.79-0.267-1.196-0.188-0.089 0.017-0.176 0.042-0.26 0.072v-1.635c0-1.126-0.808-2.043-1.807-2.063v-0.927c0.306-0.059 0.539-0.358 0.539-0.717v-2.101c0-0.402-0.292-0.729-0.651-0.729h-3.174c-0.359 0-0.651 0.327-0.651 0.729v2.101c0 0.359 0.234 0.658 0.539 0.717v0.927c-0.999 0.019-1.807 0.937-1.807 2.063v12.758c-0.779 0.788-1.264 1.888-1.264 3.104 0 2.392 1.875 4.339 4.179 4.339l15.622-0.005c0.533-0 1.035-0.263 1.376-0.72 0.332-0.445 0.473-1.023 0.392-1.594l3.12 0.628c0.043 0.009 0.087 0.013 0.131 0.013 0.156 0 0.305-0.054 0.431-0.155 0.162-0.13 0.272-0.331 0.302-0.551l0.085-0.635c0.012-0.091 0.011-0.183-0.004-0.272-0.054-0.325-0.275-0.582-0.563-0.656l-1.1-0.283 2.067-0.425c0.195-0.040 0.364-0.163 0.476-0.345s0.154-0.402 0.118-0.619zM22.509 12.654c0.235 0 0.466 0.042 0.688 0.124 0.198 0.677 0.124 1.407-0.187 2.010h-1.051l0.336-0.377c0.152-0.171 0.152-0.448-0.001-0.618s-0.4-0.17-0.552 0.001l-0.177 0.199c-0.083-0.307-0.228-0.582-0.42-0.807 0.387-0.345 0.863-0.532 1.364-0.532zM20.308 10.463c0.705 0 1.278 0.644 1.278 1.436 0 0.015-0.001 0.029-0.001 0.044-0.411 0.15-0.791 0.4-1.114 0.74-0.051-0.022-0.104-0.042-0.157-0.059-0.114-0.691-0.53-1.245-1.079-1.503 0.228-0.395 0.623-0.658 1.073-0.658zM18.244 8.028c0.265 0 0.526 0.048 0.777 0.143 0.202 0.672 0.161 1.394-0.097 2.019-0.211 0.216-0.383 0.48-0.5 0.776-0.070 0.005-0.139 0.013-0.208 0.027-0.306 0.060-0.591 0.208-0.83 0.424-0.081-0.167-0.181-0.32-0.295-0.459l0.895-1.005c0.152-0.171 0.152-0.448-0.001-0.618s-0.4-0.17-0.552 0.001l-0.978 1.098c-0.186-0.099-0.387-0.167-0.599-0.199 0.091-0.522 0.317-1.013 0.667-1.406 0.46-0.516 1.071-0.801 1.721-0.801zM15.254 14.788h-0.338c-0.057-0.162-0.198-0.277-0.363-0.277s-0.306 0.115-0.363 0.277h-0.398c0.092-0.169 0.074-0.392-0.057-0.538-0.153-0.171-0.4-0.17-0.552 0.001l-0.368 0.413c-0.033 0.037-0.058 0.079-0.077 0.124h-0.794c-0.298-0.511-0.479-1.115-0.501-1.764h6.192c-0.022 0.649-0.203 1.253-0.501 1.764h-0.827c-0.019-0.045-0.044-0.087-0.077-0.124l-0.368-0.413c-0.152-0.171-0.399-0.171-0.552-0.001-0.131 0.146-0.149 0.369-0.057 0.538zM14.346 12.149c0.147-0.611 0.644-1.061 1.234-1.061s1.087 0.451 1.234 1.061h-2.468zM15.144 6.774c0.371 0.449 0.617 0.983 0.737 1.544-0.199 0.243-0.365 0.511-0.495 0.796-0.059-0.041-0.129-0.065-0.203-0.065h-0.52c-0.216 0-0.39 0.196-0.39 0.437s0.175 0.437 0.39 0.437h0.456c-0.026 0.121-0.046 0.243-0.060 0.366-0.155 0.046-0.303 0.111-0.441 0.193-0.26-0.503-0.691-0.878-1.201-1.028-0-0.001-0-0.002-0.001-0.004-0.031-0.198-0.084-0.385-0.157-0.56l1.886-2.117zM8.088 10.719c-0.023-0.072-0.040-0.145-0.052-0.219-0.112-0.723 0.323-1.413 0.97-1.539 0.068-0.013 0.137-0.020 0.206-0.020 0.257 0 0.503 0.092 0.711 0.266 0.086 0.072 0.195 0.101 0.3 0.080s0.199-0.089 0.259-0.189c0.183-0.31 0.464-0.515 0.789-0.578 0.068-0.013 0.138-0.020 0.206-0.020 0.578 0 1.070 0.463 1.169 1.102 0.011 0.073 0.017 0.149 0.017 0.227 0 0.226 0.155 0.415 0.356 0.435 0.436 0.043 0.808 0.351 0.98 0.784-0.231 0.31-0.39 0.688-0.451 1.104h-2.226c-0.277 0-0.514 0.191-0.613 0.462-0.49-0.374-1.067-0.575-1.672-0.575-0.379 0-0.75 0.080-1.104 0.238-0.060 0.027-0.114 0.066-0.159 0.118s-0.082 0.113-0.105 0.179c-0.090 0.254-0.15 0.515-0.182 0.777-0.14-0.178-0.238-0.4-0.277-0.649-0.092-0.593 0.185-1.184 0.674-1.436 0.184-0.095 0.272-0.331 0.204-0.544zM9.252 14.668l0.106 0.12h-0.937c-0.21-0.547-0.242-1.169-0.072-1.753 0.222-0.082 0.453-0.124 0.688-0.124 0.588 0 1.141 0.257 1.558 0.725 0.055 0.062 0.107 0.127 0.155 0.195 0.066 0.335 0.168 0.656 0.299 0.957h-0.588l-0.657-0.737c-0.152-0.171-0.399-0.171-0.552-0.001s-0.153 0.447-0.001 0.618zM7.59 14.788h-1.391c0.062-0.423 0.289-0.784 0.605-0.997 0.187 0.28 0.431 0.507 0.712 0.661 0.020 0.113 0.044 0.226 0.075 0.336zM3.651 0.874h2.914v1.809h-2.914v-1.809zM6.025 3.558v0.915h-1.835v-0.915h1.835zM2.383 8.309h2.535c0.216 0 0.39-0.196 0.39-0.437s-0.175-0.437-0.39-0.437h-2.535v-0.899c0-0.656 0.475-1.189 1.058-1.189h3.332c0.584 0 1.058 0.533 1.058 1.189v0.899h-0.729c-0.216 0-0.39 0.196-0.39 0.437s0.175 0.437 0.39 0.437h0.729v0.388c-0.447 0.491-0.679 1.211-0.565 1.952 0 0.001 0 0.003 0.001 0.005-0.626 0.481-0.96 1.337-0.827 2.195 0.008 0.050 0.017 0.099 0.028 0.148-0.195 0.12-0.37 0.276-0.52 0.458h-3.566v-5.146zM2.383 14.329h3.113c-0.041 0.147-0.071 0.301-0.085 0.459h-0.066c-0.359 0-0.652 0.328-0.652 0.73 0 0.694 0.058 1.376 0.169 2.042-0.112-0.010-0.227-0.015-0.344-0.015-0.472 0-0.922 0.084-1.266 0.236-0.527 0.233-0.673 0.564-0.704 0.793-0.056 0.031-0.111 0.064-0.165 0.098v-4.343zM7.326 19.699c0.141 0.126 0.226 0.233 0.276 0.31-0.005 0-0.010 0-0.015 0-0.221 0-0.618-0.1-1.069-0.38-0.168-0.104-0.323-0.222-0.448-0.341-0.146-0.138-0.359-0.138-0.505 0-0.125 0.119-0.28 0.236-0.448 0.34-0.451 0.28-0.848 0.38-1.069 0.38-0.005 0-0.010-0-0.015-0 0.050-0.077 0.136-0.184 0.276-0.31 0.123-0.11 0.175-0.292 0.131-0.462s-0.173-0.293-0.33-0.314c-0.381-0.050-0.622-0.159-0.735-0.238 0.141-0.099 0.498-0.267 1.141-0.267 0.532 0 0.921 0.125 1.108 0.243 0.119 0.075 0.263 0.075 0.382 0 0.187-0.117 0.576-0.243 1.108-0.243 0.643 0 1 0.168 1.141 0.267-0.113 0.079-0.354 0.188-0.735 0.238-0.156 0.021-0.286 0.144-0.33 0.314s0.008 0.352 0.131 0.462zM6.545 25.019l0.013 0.081c0.046 0.281 0.144 0.538 0.281 0.762h-2.322c-1.874 0-3.399-1.554-3.399-3.464 0-1.306 0.712-2.444 1.761-3.035 0.12 0.101 0.271 0.188 0.449 0.258-0.071 0.135-0.12 0.281-0.131 0.432-0.015 0.202 0.040 0.393 0.155 0.539 0.153 0.193 0.387 0.291 0.696 0.291 0.412 0 0.953-0.183 1.447-0.489 0.114-0.070 0.221-0.145 0.322-0.223 0.101 0.078 0.208 0.152 0.322 0.223 0.494 0.306 1.035 0.489 1.447 0.489h0c0.309 0 0.544-0.098 0.696-0.291 0.116-0.146 0.171-0.337 0.155-0.539-0.012-0.152-0.061-0.297-0.131-0.432 0.178-0.070 0.328-0.157 0.449-0.258 0.832 0.468 1.452 1.281 1.673 2.249l-2.76 1.174c-0.808 0.344-1.281 1.283-1.124 2.232zM20.916 25.451c-0.192 0.258-0.476 0.406-0.777 0.406l-0.41 0-0.256-1.548c-0.039-0.237-0.243-0.394-0.455-0.35s-0.352 0.272-0.313 0.509l0.23 1.389-1.343 0.001-0.173-1.047c-0.039-0.237-0.243-0.394-0.455-0.35s-0.352 0.272-0.313 0.509l0.147 0.888-3.124 0.001-0.235-1.421c-0.039-0.237-0.243-0.394-0.455-0.35s-0.352 0.272-0.313 0.509l0.209 1.263-4.561 0.002c-0 0-0 0-0 0-0.488 0-0.906-0.388-0.994-0.922l-0.013-0.081c-0.088-0.534 0.178-1.062 0.633-1.255l1.534-0.653 0.114 0.691c0.035 0.21 0.199 0.358 0.383 0.358 0.024 0 0.048-0.002 0.072-0.007 0.212-0.044 0.352-0.272 0.313-0.509l-0.14-0.847 2.277-0.969c0.201-0.086 0.303-0.338 0.226-0.564s-0.302-0.339-0.503-0.253l-1.060 0.451c-0.297-1.179-1.061-2.163-2.074-2.727-0.032-0.229-0.177-0.56-0.704-0.793-0.344-0.152-0.794-0.236-1.266-0.236-0.325 0-0.635 0.040-0.909 0.113v-0.264c0-0.241-0.175-0.437-0.39-0.437-0.091 0-0.175 0.035-0.241 0.094-0.062-0.456-0.096-0.919-0.102-1.389h12.713c0.216 0 0.39-0.196 0.39-0.437s-0.175-0.437-0.39-0.437h-0.16c0.249-0.573 0.389-1.216 0.389-1.895 0-0.386-0.263-0.703-0.599-0.739 0.146-0.154 0.329-0.258 0.532-0.298 0.060-0.012 0.12-0.017 0.18-0.017 0.504 0 0.932 0.404 1.018 0.96 0.010 0.064 0.015 0.131 0.015 0.198 0 0.226 0.155 0.415 0.356 0.435 0.466 0.046 0.848 0.439 0.928 0.955 0.021 0.137 0.019 0.273-0.003 0.403h-0.419c-0.216 0-0.39 0.196-0.39 0.437s0.175 0.437 0.39 0.437h3.034c-0.010 0.802-0.102 1.585-0.274 2.345l-2.115 1.398c-0.129-0.504-0.43-0.932-0.844-1.192-0.465-0.291-1.017-0.337-1.515-0.125l-4.356 1.854c-0.202 0.086-0.303 0.338-0.226 0.564s0.302 0.339 0.503 0.253l0.574-0.244 0.178 1.077c0.035 0.211 0.199 0.358 0.383 0.358 0.024 0 0.048-0.002 0.072-0.007 0.212-0.044 0.352-0.272 0.313-0.509l-0.204-1.234 3.041-1.294c0.282-0.12 0.594-0.094 0.857 0.071s0.444 0.448 0.498 0.777l0.79 4.774c0.054 0.329-0.024 0.666-0.217 0.923zM22.309 22.030c-0.182 0.037-0.316 0.213-0.32 0.42s0.123 0.389 0.303 0.436l2.906 0.746-0.073 0.545-3.369-0.678-0.527-3.184 2.934-1.94 0.244 0.485-2.475 1.853c-0.154 0.115-0.214 0.336-0.145 0.528s0.25 0.303 0.432 0.266l3.888-0.8 0.087 0.523-3.887 0.8z"></path>
    </symbol>
    <symbol id="icon-З/П" viewBox="0 0 26 27">
      <path d="M12.556 10.873c-0.089-0.032-0.179-0.065-0.27-0.099v-1.667c0.3 0.121 0.51 0.289 0.519 0.296 0.217 0.18 0.536 0.149 0.715-0.070s0.149-0.545-0.068-0.727c-0.030-0.025-0.503-0.415-1.166-0.579v-0.253c0-0.285-0.228-0.517-0.509-0.517s-0.509 0.231-0.509 0.517v0.229c-0.054 0.012-0.108 0.025-0.163 0.042-0.585 0.179-1.008 0.679-1.13 1.339-0.119 0.641 0.087 1.28 0.524 1.628 0.2 0.159 0.443 0.305 0.769 0.456v2.185c-0.231-0.033-0.403-0.112-0.679-0.295-0.235-0.156-0.551-0.089-0.705 0.149s-0.088 0.559 0.147 0.715c0.484 0.321 0.825 0.434 1.236 0.47v0.321c0 0.285 0.228 0.517 0.509 0.517s0.509-0.231 0.509-0.517v-0.371c0.847-0.218 1.39-0.952 1.51-1.675 0.154-0.931-0.344-1.768-1.24-2.093zM11.268 10.298c-0.050-0.033-0.098-0.066-0.14-0.1-0.137-0.109-0.2-0.366-0.152-0.624 0.016-0.086 0.081-0.343 0.292-0.48v1.203zM12.792 12.795c-0.047 0.281-0.218 0.576-0.505 0.742v-1.663c0.553 0.236 0.539 0.718 0.505 0.92z"></path>
      <path d="M24.109 11.207l-3.234-2.167v-8.354c0-0.285-0.228-0.517-0.509-0.517h-12.22c-0.281 0-0.509 0.231-0.509 0.517v1.963h-1.935c-0.281 0-0.509 0.231-0.509 0.517v5.875l-3.234 2.167c-0.143 0.096-0.229 0.258-0.229 0.431v14.465c0 0.285 0.228 0.517 0.509 0.517h8.503c0.281 0 0.509-0.231 0.509-0.517s-0.228-0.517-0.509-0.517h-7.274l7.423-7.532 1.861 1.247c0.085 0.057 0.183 0.086 0.281 0.086s0.196-0.029 0.281-0.086l1.861-1.247 7.423 7.532h-7.274c-0.281 0-0.509 0.231-0.509 0.517s0.228 0.517 0.509 0.517h8.503c0.281 0 0.509-0.231 0.509-0.517v-14.465c0-0.173-0.086-0.335-0.229-0.431zM22.905 11.638l-2.029 1.36v-2.719l2.029 1.36zM8.656 1.203h11.201v12.477l-1.426 0.955v-11.469c0-0.285-0.228-0.517-0.509-0.517h-9.267v-1.446zM5.193 10.279v2.719l-2.029-1.36 2.029-1.36zM2.749 24.856v-12.257l7.276 4.875-7.276 7.382zM13.034 18.252l-6.823-4.571v-9.997h11.201v11.635l-4.379 2.934zM23.32 12.599v12.257l-7.276-7.382 7.276-4.875z"></path>
    </symbol>
    <symbol id="icon-sports, hobbies" viewBox="0 0 27 27">
      <path d="M26.173 11.403h-1.609c-0.298 0-0.561 0.153-0.715 0.385-1.23-0.129-1.394-0.326-1.527-0.486-0.181-0.219-0.395-0.404-0.638-0.551l-3.698-2.246c-0.753-1.749-2.013-2.843-2.948-3.456-0.364-0.239-0.581-0.643-0.581-1.082 0-0.259 0.076-0.509 0.22-0.723l0.92-1.369c0.183-0.273 0.247-0.6 0.178-0.921s-0.259-0.595-0.537-0.769c-0.192-0.12-0.414-0.184-0.64-0.184h-4.369c-0.227 0-0.448 0.064-0.64 0.184-0.278 0.175-0.469 0.448-0.537 0.769s-0.005 0.648 0.178 0.921l0.92 1.369c0.144 0.215 0.22 0.465 0.22 0.723 0 0.439-0.217 0.843-0.581 1.082-1.385 0.908-4.481 3.586-3.311 8.819 0.653 2.919 1.157 4.976 1.46 5.966h-6.522c-0.538 0-1.008 0.382-1.118 0.909l-0.223 1.070c-0.070 0.338 0.014 0.686 0.232 0.954s0.541 0.421 0.886 0.421h22.439c0.345 0 0.668-0.154 0.886-0.421s0.302-0.616 0.232-0.954l-0.223-1.070c-0.11-0.526-0.58-0.909-1.118-0.909h-6.522c0.091-0.296 0.2-0.69 0.327-1.178h0.429c1.26 0 2.508-0.188 3.711-0.559l2.458-0.31c0.147 0.262 0.427 0.441 0.749 0.441h1.609c0.473 0 0.858-0.385 0.858-0.858v-5.108c0-0.473-0.385-0.858-0.858-0.858zM9.826 1.118c0.023-0.11 0.089-0.204 0.184-0.264 0.066-0.041 0.142-0.063 0.219-0.063h4.369c0.078 0 0.154 0.022 0.219 0.063 0.095 0.060 0.161 0.153 0.184 0.264s0.001 0.222-0.061 0.316l-0.455 0.677h-4.144l-0.455-0.677c-0.063-0.093-0.084-0.206-0.061-0.316zM10.223 5.71c0.588-0.385 0.939-1.037 0.939-1.743 0-0.377-0.102-0.743-0.293-1.065h3.091c-0.192 0.322-0.293 0.688-0.293 1.065 0 0.706 0.351 1.358 0.939 1.743 0.242 0.159 0.509 0.353 0.781 0.587h-5.943c0.277-0.238 0.544-0.433 0.779-0.587zM23.755 20.903l0.223 1.070c0.030 0.142-0.032 0.245-0.071 0.293s-0.127 0.13-0.272 0.13h-22.439c-0.145 0-0.233-0.081-0.272-0.13s-0.101-0.151-0.071-0.293l0.223-1.070c0.034-0.162 0.178-0.279 0.344-0.279h21.993c0.165 0 0.31 0.117 0.344 0.279zM16.059 19.833h-7.29c-0.163-0.486-0.577-1.928-1.519-6.138-0.397-1.775-0.302-3.383 0.28-4.789h1.457c0.219 0 0.396-0.177 0.396-0.396s-0.177-0.396-0.396-0.396h-1.065c0.223-0.385 0.472-0.726 0.729-1.026h7.526c0.258 0.301 0.506 0.642 0.728 1.026h-6.334c-0.219 0-0.396 0.177-0.396 0.396s0.177 0.396 0.396 0.396h5.241c-0.101 0.246-0.121 0.517-0.057 0.78 0.081 0.329 0.285 0.607 0.574 0.782l0.68 0.413h-4.396c-0.698 0-1.264 0.537-1.288 1.223-0.007 0.183 0.025 0.36 0.091 0.523h-0.406c-0.347 0-0.672 0.138-0.913 0.388s-0.367 0.579-0.355 0.927c0.019 0.543 0.379 0.993 0.874 1.157-0.078 0.165-0.122 0.349-0.122 0.543 0 0.699 0.569 1.269 1.269 1.269h0.599c-0.060 0.147-0.093 0.309-0.093 0.477 0 0.7 0.569 1.269 1.269 1.269h2.859c-0.166 0.629-0.273 0.981-0.339 1.177zM21.224 17.316c-0.023 0.003-0.046 0.008-0.068 0.015-1.138 0.354-2.318 0.534-3.51 0.534h-4.105c-0.263 0-0.477-0.214-0.477-0.477s0.214-0.478 0.477-0.478h2.592c0.218 0 0.396-0.177 0.396-0.396s-0.177-0.396-0.396-0.396h-4.367c-0.263 0-0.477-0.214-0.477-0.478s0.214-0.477 0.477-0.477h4.367c0.218 0 0.396-0.177 0.396-0.396s-0.177-0.396-0.396-0.396h-5.099c-0.266 0-0.489-0.206-0.498-0.46-0.005-0.131 0.043-0.255 0.133-0.349s0.213-0.146 0.344-0.146h5.12c0.218 0 0.396-0.177 0.396-0.396s-0.177-0.396-0.396-0.396h-3.538c-0.131 0-0.253-0.052-0.344-0.146s-0.138-0.218-0.133-0.349c0.009-0.253 0.233-0.46 0.498-0.46h5.452c0.225 0 0.417-0.145 0.477-0.362s-0.028-0.44-0.22-0.557l-1.583-0.961c-0.109-0.066-0.186-0.171-0.216-0.295s-0.011-0.252 0.055-0.361c0.136-0.225 0.431-0.297 0.655-0.162l4.038 2.453c0.167 0.101 0.314 0.229 0.439 0.379 0.323 0.391 0.739 0.625 1.994 0.762v4.434l-2.483 0.313zM26.24 17.369c0 0.037-0.030 0.067-0.067 0.067h-1.609c-0.037 0-0.067-0.030-0.067-0.067v-5.109c0-0.037 0.030-0.067 0.067-0.067h1.609c0.037 0 0.067 0.030 0.067 0.067v5.109z"></path>
      <path d="M18.965 25.724l-2.060-1.657c-0.17-0.137-0.419-0.11-0.556 0.060s-0.11 0.419 0.060 0.556l1.897 1.526h-11.783l1.901-1.529c0.17-0.137 0.197-0.386 0.060-0.556s-0.386-0.197-0.556-0.060l-2.064 1.66c-0.24 0.193-0.329 0.506-0.227 0.797s0.368 0.479 0.677 0.479h12.202c0.308 0 0.574-0.188 0.677-0.479s0.013-0.604-0.227-0.797z"></path>
    </symbol>
    <symbol id="icon-technique" viewBox="0 0 27 27">
      <path d="M18.317 8.182c-0.291 0-0.527 0.236-0.527 0.527s0.236 0.527 0.527 0.527c0.292 0 0.527-0.236 0.527-0.527s-0.236-0.527-0.527-0.527z"></path>
      <path d="M8.735 17.763c-0.292 0-0.527 0.236-0.527 0.527s0.236 0.527 0.527 0.527c0.291 0 0.527-0.236 0.527-0.527s-0.236-0.527-0.527-0.527z"></path>
      <path d="M26.37 3.244c-0.178-0.041-0.365 0.012-0.494 0.142l-2.186 2.204h-1.048l-1.154-1.195v-1.063l2.155-2.187c0.128-0.129 0.179-0.315 0.137-0.492s-0.172-0.319-0.344-0.377c-0.541-0.183-1.108-0.275-1.684-0.275-1.718 0-3.278 0.801-4.281 2.197-0.939 1.307-1.228 2.909-0.814 4.442l-3.884 3.884-6.472-6.486v-1.273c0-0.185-0.097-0.357-0.256-0.452l-3.729-2.237c-0.208-0.125-0.473-0.092-0.644 0.079l-1.491 1.491c-0.171 0.171-0.204 0.437-0.079 0.644l2.237 3.729c0.095 0.159 0.267 0.256 0.452 0.256l1.273 0 6.472 6.486-3.87 3.87c-1.533-0.414-3.136-0.125-4.444 0.815-1.396 1.003-2.196 2.563-2.196 4.28 0 0.576 0.092 1.143 0.275 1.684 0.058 0.173 0.202 0.304 0.38 0.345s0.365-0.012 0.494-0.142l2.186-2.203h1.054l1.201 1.201v1.054l-2.203 2.186c-0.13 0.129-0.184 0.316-0.142 0.494s0.172 0.322 0.345 0.38c0.541 0.182 1.108 0.275 1.684 0.275 1.718 0 3.277-0.801 4.28-2.196 0.94-1.308 1.229-2.911 0.815-4.444l3.108-3.108 0.712 0.773-0.327 0.327c-0.206 0.206-0.206 0.54 0 0.746s0.54 0.206 0.746 0l0.296-0.296 6.68 7.255c0.005 0.005 0.010 0.011 0.015 0.016 1.236 1.236 3.238 1.236 4.475-0 1.233-1.234 1.233-3.241 0-4.475-0.005-0.005-0.011-0.011-0.016-0.016l-7.267-6.667 0.293-0.293c0.206-0.206 0.206-0.54 0-0.746s-0.54-0.206-0.746 0l-0.324 0.325-0.775-0.711 3.123-3.123c0.444 0.119 0.902 0.179 1.366 0.179 2.908 0 5.273-2.366 5.273-5.273 0-0.576-0.092-1.143-0.275-1.684-0.058-0.173-0.202-0.304-0.38-0.345zM4.656 5.375c-0.099-0.099-0.233-0.15-0.373-0.15l-1.193-0-1.872-3.125 0.909-0.909 3.12 1.872v1.193c0 0.14 0.055 0.274 0.154 0.372l6.626 6.641-0.746 0.746-6.626-6.64zM18.069 15.662l7.292 6.689c0.815 0.823 0.812 2.156-0.008 2.976-0.821 0.821-2.151 0.824-2.976 0.007l-6.701-7.279 2.394-2.393zM17.292 14.948l-2.331 2.33-0.712-0.773 2.268-2.268 0.775 0.711zM21.752 9.492c-0.461 0-0.915-0.074-1.348-0.22-0.19-0.064-0.399-0.015-0.541 0.127-2.644 2.644-8.34 8.34-10.438 10.438-0.142 0.142-0.191 0.351-0.127 0.541 0.438 1.302 0.229 2.69-0.576 3.81-0.802 1.116-2.050 1.757-3.423 1.757-0.154 0-0.308-0.008-0.46-0.025l1.675-1.662c0.1-0.099 0.156-0.234 0.156-0.374v-1.492c0-0.14-0.056-0.274-0.154-0.373l-1.51-1.51c-0.099-0.099-0.233-0.154-0.373-0.154h-1.492c-0.141 0-0.275 0.056-0.374 0.156l-1.662 1.675c-0.016-0.152-0.025-0.305-0.025-0.46 0-1.374 0.64-2.621 1.757-3.423 1.119-0.804 2.508-1.014 3.81-0.576 0.19 0.064 0.399 0.015 0.541-0.127 0.029-0.029 10.43-10.43 10.438-10.438 0.142-0.142 0.191-0.351 0.127-0.541-0.439-1.302-0.229-2.69 0.574-3.808 0.803-1.117 2.051-1.758 3.424-1.758 0.159 0 0.317 0.009 0.474 0.026l-1.64 1.665c-0.097 0.099-0.152 0.232-0.152 0.37v1.492c0 0.137 0.053 0.268 0.148 0.366l1.457 1.51c0.099 0.103 0.236 0.161 0.379 0.161h1.492c0.14 0 0.275-0.056 0.374-0.156l1.662-1.675c0.016 0.152 0.025 0.305 0.025 0.46 0 2.326-1.892 4.219-4.219 4.219z"></path>
      <path d="M16.453 9.827l-6.599 6.599c-0.206 0.206-0.206 0.54 0 0.746s0.54 0.206 0.746 0l6.599-6.599c0.206-0.206 0.206-0.54 0-0.746s-0.54-0.206-0.746 0z"></path>
      <path d="M23.116 23.836c0.206 0.205 0.54 0.205 0.746-0.001s0.205-0.54-0.001-0.746l-4.753-4.738c-0.206-0.206-0.54-0.205-0.746 0.001s-0.205 0.54 0.001 0.746l4.753 4.738z"></path>
    </symbol>
    <symbol id="icon-transport" viewBox="0 0 24 27">
      <path d="M22.979 10.817l-0.518-0.623-1.82-5.567c-0.31-0.94-1.103-1.563-1.987-1.569h-12.996c-0.884 0-1.677 0.629-1.987 1.569l-1.794 5.498-0.747 0.785c-0.651 0.629-1.027 1.552-1.027 2.521v8.112c0.005 1.327 0.955 2.4 2.124 2.4h1.342c1.169 0 2.119-1.073 2.124-2.4v-1.177h12.604v1.177c0.005 1.327 0.955 2.4 2.124 2.4h1.342c1.169 0 2.119-1.073 2.124-2.4v-8.325c-0.005-0.906-0.33-1.771-0.91-2.4zM4.627 5.019c0.163-0.49 0.574-0.808 1.032-0.808h13.001c0.457 0 0.869 0.323 1.032 0.808l1.586 4.846h-1.184c-0.28-2.163-2.053-3.658-3.959-3.335-1.52 0.254-2.714 1.61-2.938 3.335h-10.155l1.586-4.846zM19.056 9.865h-4.833c0.279-1.517 1.591-2.487 2.927-2.169 0.956 0.231 1.703 1.079 1.906 2.169zM4.677 21.542c-0.005 0.692-0.498 1.246-1.108 1.246h-1.342c-0.61 0-1.103-0.554-1.108-1.246v-1.512c0.305 0.225 0.706 0.335 1.108 0.335h2.45v1.177zM22.873 21.542c-0.005 0.692-0.498 1.246-1.108 1.246h-1.342c-0.61 0-1.103-0.56-1.108-1.246v-1.177h2.45c0.401 0 0.803-0.11 1.108-0.335v1.512zM21.765 19.212h-19.537c-0.605 0.006-1.103-0.542-1.108-1.235v-4.546c0-0.635 0.249-1.24 0.676-1.65 0.005-0.006 0.015-0.017 0.020-0.023l0.691-0.738h19.247l0.488 0.594c0.005 0.012 0.020 0.017 0.025 0.029 0.381 0.41 0.6 0.981 0.6 1.575v4.76h0.005c-0.005 0.687-0.503 1.24-1.108 1.235z"></path>
      <path d="M6.812 13.327h-3.812c-0.28 0-0.508 0.26-0.508 0.577v3c0 0.317 0.229 0.577 0.508 0.577h3.812c0.28 0 0.508-0.26 0.508-0.577v-3c0-0.317-0.229-0.577-0.508-0.577zM6.304 16.327h-2.795v-1.846h2.795v1.846z"></path>
      <path d="M20.992 13.327h-3.812c-0.28 0-0.508 0.26-0.508 0.577v3c0 0.317 0.229 0.577 0.508 0.577h3.812c0.28 0 0.508-0.26 0.508-0.577v-3c0-0.317-0.229-0.577-0.508-0.577zM20.484 16.327h-2.795v-1.846h2.795v1.846z"></path>
      <path d="M14.451 15.75h-4.91c-0.279 0-0.508 0.26-0.508 0.577s0.229 0.577 0.508 0.577h4.91c0.279 0 0.508-0.26 0.508-0.577s-0.229-0.577-0.508-0.577z"></path>
      <path d="M14.451 13.961h-4.91c-0.279 0-0.508 0.26-0.508 0.577s0.229 0.577 0.508 0.577h4.91c0.279 0 0.508-0.26 0.508-0.577s-0.229-0.577-0.508-0.577z"></path>
    </symbol>
    <symbol id="icon-logo" viewBox="0 0 93 32">
      <path fill="#fb7c2f" style="fill:var(--color1, #fb7c2f)" d="M14.452 5.161H32a8.258 8.258 0 0 1 8.258 8.258v10.323A8.258 8.258 0 0 1 32 32H14.452a8.258 8.258 0 0 1-8.258-8.258V13.419a8.258 8.258 0 0 1 8.258-8.258z"/>
      <path fill="#fb7c2f" style="fill:var(--color1, #fb7c2f)" opacity=".2" d="M8.258 0h17.548a8.258 8.258 0 0 1 8.258 8.258v10.323a8.258 8.258 0 0 1-8.258 8.258H8.258A8.258 8.258 0 0 1 0 18.581V8.258A8.258 8.258 0 0 1 8.258 0z"/>
      <path d="m23.88 21.234 1.327-1.456 2.857 4.995h3.834l-4.534-7.483 4.534-5.935h-3.999l-2.894 4.211-1.124 1.705v-5.916h-3.235v13.418h3.235v-3.539zm15.049 2.644c.086.393.184.691.295.894h3.106v-.157c-.27-.485-.412-1.186-.424-2.101V18.1c-.018-1.081-.396-1.932-1.134-2.553s-1.742-.931-3.013-.931c-1.272 0-2.319.301-3.142.903-.817.602-1.226 1.385-1.226 2.35h3.106c0-.725.369-1.087 1.106-1.087.792 0 1.189.458 1.189 1.373v.525h-.958c-1.524 0-2.685.276-3.483.829s-1.198 1.37-1.198 2.451c0 .86.329 1.576.986 2.147.657.565 1.456.848 2.396.848 1.026 0 1.825-.359 2.396-1.078zm-.692-1.382c-.252.166-.571.249-.958.249-.295 0-.538-.086-.728-.258a.906.906 0 0 1-.286-.691c0-.971.541-1.456 1.622-1.456h.903v1.594c-.111.209-.295.396-.553.562zm14.653-2.635c0 1.548-.35 2.786-1.051 3.714-.694.922-1.634 1.382-2.82 1.382-.915 0-1.668-.335-2.258-1.005v4.654h-3.106V14.801h2.903l.092.922c.596-.737 1.379-1.106 2.35-1.106 1.229 0 2.184.455 2.866 1.364.682.903 1.023 2.147 1.023 3.732v.148zm-3.106-.194c0-1.769-.516-2.654-1.548-2.654-.737 0-1.229.264-1.474.793v3.926c.27.553.768.829 1.493.829.989 0 1.499-.854 1.53-2.562v-.332zm8.792 5.29c1.118 0 2.006-.421 2.663-1.263l.092 1.078h2.912v-9.971h-3.124v6.994c-.301.51-.808.765-1.521.765-.829 0-1.244-.427-1.244-1.281v-6.478h-3.106v6.46c0 1.192.28 2.107.839 2.746.565.633 1.395.949 2.488.949zm12.597-2.986c0-.264-.138-.476-.415-.636s-.802-.326-1.576-.498-1.413-.396-1.917-.673c-.504-.283-.888-.624-1.152-1.023s-.396-.857-.396-1.373c0-.915.378-1.668 1.134-2.258.635-.5 1.434-.791 2.397-.871v-2.265h1.48v2.294c.901.109 1.655.39 2.26.841.799.596 1.198 1.379 1.198 2.35h-3.115c0-.799-.421-1.198-1.262-1.198-.326 0-.599.092-.82.276a.829.829 0 0 0-.332.673c0 .276.135.501.405.673s.7.313 1.29.424a11.32 11.32 0 0 1 1.567.396c1.499.516 2.249 1.441 2.249 2.774 0 .909-.405 1.65-1.216 2.221-.605.43-1.346.698-2.223.804v2.274h-1.48v-2.245a5.134 5.134 0 0 1-1.715-.437c-.67-.307-1.192-.725-1.567-1.253s-.562-1.084-.562-1.668h2.903c.012.461.166.799.461 1.014.295.209.673.313 1.133.313.424 0 .74-.086.949-.258a.821.821 0 0 0 .323-.673zm9.105-7.17v-2.479h-3.106v2.479H75.9v2.156h1.272v4.949c0 1.026.255 1.791.765 2.295s1.299.756 2.368.756c.608 0 1.192-.089 1.751-.267v-2.221a4.546 4.546 0 0 1-.774.055c-.399 0-.667-.074-.802-.221s-.203-.409-.203-.783v-4.562h1.64v-2.156h-1.64zm9.52 9.971c-.111-.203-.209-.501-.295-.894-.571.719-1.37 1.078-2.396 1.078-.94 0-1.739-.283-2.396-.848-.657-.571-.986-1.287-.986-2.147 0-1.081.399-1.898 1.198-2.451s1.96-.829 3.483-.829h.958v-.525c0-.915-.396-1.373-1.189-1.373-.737 0-1.106.363-1.106 1.087h-3.106c0-.965.408-1.748 1.226-2.35.823-.602 1.871-.903 3.142-.903s2.276.31 3.013.931c.737.62 1.115 1.471 1.133 2.553v4.414c.012.915.154 1.616.424 2.101v.157h-3.106zm-1.945-2.027c.387 0 .706-.083.958-.249.258-.166.442-.353.553-.562V20.34h-.903c-1.081 0-1.622.485-1.622 1.456a.9.9 0 0 0 .286.691c.19.172.433.258.728.258z"/>
    </symbol>
    <symbol id="icon-google" viewBox="0 0 32 32">
      <path fill="#2196f3" style="fill: var(--color3, #2196f3)" d="M30.578 13.031c0.124 0 0.231 0.124 0.231 0.267v2.702c0 1.013-0.089 2.009-0.249 2.969-1.333 7.449-7.609 13.084-15.111 13.031-8.444-0.053-15.182-7.2-15.164-16.036 0.018-8.818 6.827-15.964 15.271-15.964 4.124 0 7.858 1.707 10.613 4.498 0.089 0.107 0.089 0.267 0 0.356l-3.644 3.858c-0.043 0.051-0.106 0.083-0.178 0.083s-0.135-0.032-0.177-0.083l-0-0c-1.688-1.705-4.026-2.764-6.612-2.773h-0.002c-5.336 0.109-9.62 4.46-9.62 9.811 0 0.069 0.001 0.139 0.002 0.208l-0-0.010c-0.003 0.086-0.004 0.186-0.004 0.288 0 5.353 4.271 9.709 9.592 9.846l0.013 0c4.338 0 8-2.987 9.209-7.111h-8.96c-0.13-0.010-0.231-0.117-0.231-0.248 0-0 0-0 0-0.001v0-5.422c0-0.142 0.107-0.267 0.231-0.267h14.773z"></path>
      <path fill="#1e88e5" style="fill: var(--color4, #1e88e5)" d="M30.578 13.031h-1.849c0.124 0 0.249 0.124 0.249 0.267v2.702c0 1.013-0.089 2.009-0.267 2.969-1.172 7.021-6.918 12.397-14.023 12.992l-0.057 0.004 0.8 0.036c7.52 0.053 13.796-5.582 15.111-13.031 0.178-0.96 0.267-1.956 0.267-2.969v-2.702c0-0.005 0.001-0.012 0.001-0.018 0-0.137-0.111-0.249-0.249-0.249-0 0-0 0-0.001 0h0z"></path>
      <path fill="#f44336" style="fill: var(--color5, #f44336)" d="M6.809 11.787l-4.622-3.52c2.545-4.906 7.565-8.213 13.362-8.267l0.007-0c4.124 0 7.858 1.707 10.613 4.498 0.089 0.107 0.089 0.267 0 0.356l-3.644 3.858c-0.043 0.051-0.106 0.083-0.178 0.083s-0.135-0.032-0.177-0.083l-0-0c-1.698-1.728-4.060-2.799-6.672-2.799-3.919 0-7.275 2.411-8.665 5.83l-0.022 0.063z"></path>
      <path fill="#e53935" style="fill: var(--color6, #e53935)" d="M5.476 10.773l1.333 1.013c1.355-3.136 4.239-5.381 7.686-5.809l0.047-0.005h0.089c-0.261-0.025-0.564-0.040-0.871-0.040-3.536 0-6.621 1.93-8.26 4.793l-0.025 0.047zM24.32 4.498c0.107 0.107 0.107 0.267 0 0.356l-2.951 3.147c0.284 0.213 0.533 0.462 0.8 0.711 0.107 0.107 0.249 0.107 0.356 0l3.644-3.822c0.042-0.047 0.068-0.109 0.068-0.178s-0.026-0.131-0.068-0.178l0 0c-2.707-2.801-6.497-4.541-10.693-4.541-0.303 0-0.604 0.009-0.903 0.027l0.041-0.002c3.823 0.253 7.216 1.912 9.704 4.459l0.003 0.003z"></path>
      <path fill="#4caf50" style="fill: var(--color7, #4caf50)" d="M26.738 26.88c-2.739 3.133-6.738 5.105-11.197 5.12h-0.003c-6.025-0.066-11.204-3.624-13.614-8.743l-0.039-0.093 4.747-3.413c1.374 3.686 4.84 6.274 8.918 6.329l0.007 0c2.524 0 4.836-1.031 6.56-2.72l4.622 3.52z"></path>
      <path fill="#43a047" style="fill: var(--color8, #43a047)" d="M6.631 19.751l-1.404 1.013c1.603 3.167 4.833 5.3 8.561 5.3 0.297 0 0.591-0.014 0.881-0.040l-0.037 0.003c-3.694-0.43-6.724-2.884-7.978-6.209l-0.022-0.067zM15.556 32c4.462-0.015 8.461-1.987 11.185-5.103l0.015-0.017-1.138-0.871c-2.571 3.388-6.488 5.639-10.939 5.953l-0.048 0.003 0.924 0.036z"></path>
      <path fill="#ffc107" style="fill: var(--color9, #ffc107)" d="M5.938 16c0 1.333 0.249 2.596 0.693 3.751l-4.747 3.413c-1.025-2.091-1.624-4.55-1.624-7.149 0-2.835 0.713-5.504 1.969-7.837l-0.043 0.088 4.622 3.52c-0.551 1.28-0.889 2.702-0.889 4.213z"></path>
      <path fill="#ffb300" style="fill: var(--color10, #ffb300)" d="M5.227 20.764l1.404-1.013c-0.444-1.117-0.701-2.412-0.701-3.766 0-1.519 0.323-2.962 0.905-4.265l-0.027 0.066-1.333-1.013c-0.881 1.498-1.402 3.3-1.402 5.224 0 1.741 0.426 3.382 1.18 4.825l-0.027-0.058z"></path>
    </symbol>
    <symbol id="icon-reports" viewBox="0 0 24 24">
      <g clip-path="url(#clip0_19402_517)">
        <path d="M5 9.2H8V19H5V9.2ZM10.6 5H13.4V19H10.6V5ZM16.2 13H19V19H16.2V13Z"/>
      </g>
      <defs>
        <clipPath id="clip0_19402_517">
          <rect width="24" height="24" fill="white"/>
        </clipPath>
      </defs>
    </symbol>
    <symbol id="icon-calendar" viewBox="0 0 20 20">
      <path d="M17.4754 2.0669H16.1634V1.74585C16.1634 1.42226 15.9011 1.15991 15.5775 1.15991C15.2539 1.15991 14.9916 1.42226 14.9916 1.74585V2.0669H13.3747V1.74585C13.3747 1.42226 13.1123 1.15991 12.7887 1.15991C12.4652 1.15991 12.2028 1.42226 12.2028 1.74585V2.0669H10.5859V1.74585C10.5859 1.42226 10.3236 1.15991 10 1.15991C9.67641 1.15991 9.41406 1.42226 9.41406 1.74585V2.0669H7.79719V1.74585C7.79719 1.42226 7.53484 1.15991 7.21125 1.15991C6.88766 1.15991 6.62531 1.42226 6.62531 1.74585V2.0669H5.00844V1.74585C5.00844 1.42226 4.74609 1.15991 4.4225 1.15991C4.09891 1.15991 3.83656 1.42226 3.83656 1.74585V2.0669H2.52461C1.13254 2.0669 0 3.19944 0 4.59147V16.3155C0 17.7076 1.13254 18.8401 2.52461 18.8401H17.4754C18.8675 18.8401 20 17.7075 20 16.3155V4.59147C20 3.19944 18.8675 2.0669 17.4754 2.0669ZM18.8281 16.3155C18.8281 17.0614 18.2213 17.6682 17.4754 17.6682H2.52461C1.77871 17.6682 1.17188 17.0614 1.17188 16.3155V6.73233H18.8281V16.3155ZM18.8281 5.56046H1.17188V4.59147C1.17188 3.84562 1.77871 3.23878 2.52461 3.23878H3.83656V3.4653C3.83656 3.7889 4.09891 4.05124 4.4225 4.05124C4.74609 4.05124 5.00844 3.7889 5.00844 3.4653V3.23878H6.62531V3.4653C6.62531 3.7889 6.88766 4.05124 7.21125 4.05124C7.53484 4.05124 7.79719 3.7889 7.79719 3.4653V3.23878H9.41406V3.4653C9.41406 3.7889 9.67641 4.05124 10 4.05124C10.3236 4.05124 10.5859 3.7889 10.5859 3.4653V3.23878H12.2028V3.4653C12.2028 3.7889 12.4652 4.05124 12.7887 4.05124C13.1123 4.05124 13.3747 3.7889 13.3747 3.4653V3.23878H14.9916V3.4653C14.9916 3.7889 15.2539 4.05124 15.5775 4.05124C15.9011 4.05124 16.1634 3.7889 16.1634 3.4653V3.23878H17.4754C18.2213 3.23878 18.8281 3.84562 18.8281 4.59147V5.56046Z" />
      <path d="M6.5318 7.98169H4.21973C3.89613 7.98169 3.63379 8.24403 3.63379 8.56762V10.9598C3.63379 11.2834 3.89613 11.5457 4.21973 11.5457H6.5318C6.85539 11.5457 7.11773 11.2834 7.11773 10.9598V8.56762C7.11773 8.24403 6.85543 7.98169 6.5318 7.98169ZM5.94586 10.3738H4.80566V9.15356H5.94586V10.3738Z"/>
      <path d="M11.1561 7.98169H8.84399C8.5204 7.98169 8.25806 8.24403 8.25806 8.56762V10.9598C8.25806 11.2834 8.5204 11.5457 8.84399 11.5457H11.1561C11.4797 11.5457 11.742 11.2834 11.742 10.9598V8.56762C11.742 8.24403 11.4797 7.98169 11.1561 7.98169ZM10.5701 10.3738H9.42993V9.15356H10.5701V10.3738Z"/>
      <path d="M15.7802 7.98169H13.4681C13.1445 7.98169 12.8822 8.24403 12.8822 8.56762V10.9598C12.8822 11.2834 13.1445 11.5457 13.4681 11.5457H15.7802C16.1038 11.5457 16.3661 11.2834 16.3661 10.9598V8.56762C16.3661 8.24403 16.1038 7.98169 15.7802 7.98169ZM15.1943 10.3738H14.0541V9.15356H15.1943V10.3738Z"/>
      <path d="M6.5318 12.5256H4.21973C3.89613 12.5256 3.63379 12.788 3.63379 13.1116V15.5037C3.63379 15.8273 3.89613 16.0897 4.21973 16.0897H6.5318C6.85539 16.0897 7.11773 15.8273 7.11773 15.5037V13.1116C7.11773 12.788 6.85543 12.5256 6.5318 12.5256ZM5.94586 14.9178H4.80566V13.6975H5.94586V14.9178Z"/>
      <path d="M11.1561 12.5256H8.84399C8.5204 12.5256 8.25806 12.788 8.25806 13.1116V15.5037C8.25806 15.8273 8.5204 16.0897 8.84399 16.0897H11.1561C11.4797 16.0897 11.742 15.8273 11.742 15.5037V13.1116C11.742 12.788 11.4797 12.5256 11.1561 12.5256ZM10.5701 14.9178H9.42993V13.6975H10.5701V14.9178Z"/>
      <path d="M15.7802 12.5256H13.4681C13.1445 12.5256 12.8822 12.788 12.8822 13.1116V15.5037C12.8822 15.8273 13.1445 16.0897 13.4681 16.0897H15.7802C16.1038 16.0897 16.3661 15.8273 16.3661 15.5037V13.1116C16.3661 12.788 16.1038 12.5256 15.7802 12.5256ZM15.1943 14.9178H14.0541V13.6975H15.1943V14.9178Z"/>
    </symbol>
    <symbol id="icon-calc" viewBox="0 0 20 20" >
      <path d="M17.0312 0H2.96875C1.99949 0 1.21094 0.788555 1.21094 1.75781V18.2422C1.21094 19.2114 1.99949 20 2.96875 20H17.0312C18.0005 20 18.7891 19.2114 18.7891 18.2422V1.75781C18.7891 0.788555 18.0005 0 17.0312 0ZM17.6172 18.2422C17.6172 18.5653 17.3543 18.8281 17.0312 18.8281H2.96875C2.64566 18.8281 2.38281 18.5653 2.38281 18.2422V1.75781C2.38281 1.43473 2.64566 1.17188 2.96875 1.17188H17.0312C17.3543 1.17188 17.6172 1.43473 17.6172 1.75781V18.2422Z" />
      <path d="M15.8594 2.34375H4.14062C3.81703 2.34375 3.55469 2.60609 3.55469 2.92969V7.69531C3.55469 8.01891 3.81703 8.28125 4.14062 8.28125H15.8594C16.183 8.28125 16.4453 8.01891 16.4453 7.69531V2.92969C16.4453 2.60609 16.183 2.34375 15.8594 2.34375ZM15.2734 7.10938H4.72656V3.51562H15.2734V7.10938Z" />
      <path d="M6.48438 9.45312H4.14062C3.81703 9.45312 3.55469 9.71547 3.55469 10.0391V12.3828C3.55469 12.7064 3.81703 12.9688 4.14062 12.9688H6.48438C6.80797 12.9688 7.07031 12.7064 7.07031 12.3828V10.0391C7.07031 9.71547 6.80797 9.45312 6.48438 9.45312ZM5.89844 11.7969H4.72656V10.625H5.89844V11.7969Z" />
      <path d="M6.48438 14.1406H4.14062C3.81703 14.1406 3.55469 14.403 3.55469 14.7266V17.0703C3.55469 17.3939 3.81703 17.6562 4.14062 17.6562H6.48438C6.80797 17.6562 7.07031 17.3939 7.07031 17.0703V14.7266C7.07031 14.403 6.80797 14.1406 6.48438 14.1406ZM5.89844 16.4844H4.72656V15.3125H5.89844V16.4844Z" />
      <path d="M11.1719 9.45312H8.82812C8.50453 9.45312 8.24219 9.71547 8.24219 10.0391V12.3828C8.24219 12.7064 8.50453 12.9688 8.82812 12.9688H11.1719C11.4955 12.9688 11.7578 12.7064 11.7578 12.3828V10.0391C11.7578 9.71547 11.4955 9.45312 11.1719 9.45312ZM10.5859 11.7969H9.41406V10.625H10.5859V11.7969Z" />
      <path d="M11.1719 14.1406H8.82812C8.50453 14.1406 8.24219 14.403 8.24219 14.7266V17.0703C8.24219 17.3939 8.50453 17.6562 8.82812 17.6562H11.1719C11.4955 17.6562 11.7578 17.3939 11.7578 17.0703V14.7266C11.7578 14.403 11.4955 14.1406 11.1719 14.1406ZM10.5859 16.4844H9.41406V15.3125H10.5859V16.4844Z" />
      <path d="M15.8594 9.45312H13.5156C13.192 9.45312 12.9297 9.71547 12.9297 10.0391V17.0703C12.9297 17.3939 13.192 17.6562 13.5156 17.6562H15.8594C16.183 17.6562 16.4453 17.3939 16.4453 17.0703V10.0391C16.4453 9.71547 16.183 9.45312 15.8594 9.45312ZM15.2734 16.4844H14.1016V10.625H15.2734V16.4844Z" />
    </symbol>
  </defs>
</svg>